<?xml version="1.0" encoding="utf-8"?>
<!-- Generator: Adobe Illustrator 19.1.0, SVG Export Plug-In . SVG Version: 6.00 Build 0)  -->
<svg version="1.1" id="Layer_1" xmlns="http://www.w3.org/2000/svg" xmlns:xlink="http://www.w3.org/1999/xlink" x="0px" y="0px"
	 viewBox="0 0 216 216" style="enable-background:new 0 0 216 216;" xml:space="preserve">
<style type="text/css">
	.st0{fill:#27BAB8;}
	.st1{fill:#303A42;}
	.st2{fill:#0CA7E0;}
	.st3{fill:#FFFFFF;}
	.st4{fill:#29BAB9;}
</style>
<g>
	<path class="st0" d="M141,167.9C141.1,167.9,141.1,167.9,141,167.9l33-60.2l-33-60.3H75l-33,60.3L75,168h65.9
		C140.9,168,141,167.9,141,167.9z"/>
	<path class="st1" d="M138.8,164.4C138.8,164.3,138.8,164.3,138.8,164.4l31.1-56.6L138.8,51H76.5l-31.1,56.7l31.1,56.7h62.2
		C138.7,164.4,138.7,164.4,138.8,164.4z"/>
	<polygon class="st2" points="146,127.8 81.2,88.6 84.5,82.4 149.3,121.6 	"/>
	<polygon class="st3" points="111.6,90.5 80.4,71.6 83.7,65.4 114.9,84.3 	"/>
	<polygon class="st4" points="146.8,112 115.7,93.1 119,86.9 150.1,105.8 	"/>
	<polygon class="st4" points="104.3,132.2 62.8,107.1 66.1,100.9 107.6,126 	"/>
	<polygon class="st3" points="115.1,123.1 83.8,104.2 87.1,98.1 118.4,117 	"/>
	<polygon class="st2" points="131.7,149.1 108.7,135.2 112.1,129 135,142.9 	"/>
</g>
</svg>
